<svg viewBox="0 0 19 19" xmlns="http://www.w3.org/2000/svg"><defs><linearGradient x1="4.5" y1="8" x2="4.4134" y2="12.4084" id="gradient8402" gradientUnits="userSpaceOnUse"><stop offset="0%" stop-color="rgb(20,30,36)"/><stop offset="100%" stop-color="rgb(225,160,121)"/></linearGradient><linearGradient x1="4.5" y1="8" x2="4.4825" y2="10.5071" id="gradient8403" gradientUnits="userSpaceOnUse"><stop offset="0%" stop-color="rgb(20,30,36)"/><stop offset="100%" stop-color="rgb(225,160,121)"/></linearGradient><linearGradient x1="14.4922" y1="8.0014" x2="14.5788" y2="12.4098" id="gradient8404" gradientUnits="userSpaceOnUse"><stop offset="0%" stop-color="rgb(20,30,36)"/><stop offset="100%" stop-color="rgb(225,160,121)"/></linearGradient><linearGradient x1="14.4922" y1="8.0014" x2="14.5096" y2="10.5085" id="gradient8405" gradientUnits="userSpaceOnUse"><stop offset="0%" stop-color="rgb(20,30,36)"/><stop offset="100%" stop-color="rgb(225,160,121)"/></linearGradient><linearGradient x1="4.5" y1="8.1094" x2="4.4172" y2="12.325" id="gradient8409" gradientUnits="userSpaceOnUse"><stop offset="0%" stop-color="rgb(20,30,36)"/><stop offset="100%" stop-color="rgb(139,188,199)"/></linearGradient><linearGradient x1="4.5" y1="8.1094" x2="4.4833" y2="10.5068" id="gradient8410" gradientUnits="userSpaceOnUse"><stop offset="0%" stop-color="rgb(20,30,36)"/><stop offset="100%" stop-color="rgb(139,188,199)"/></linearGradient><linearGradient x1="14.4922" y1="8.1108" x2="14.575" y2="12.3263" id="gradient8411" gradientUnits="userSpaceOnUse"><stop offset="0%" stop-color="rgb(20,30,36)"/><stop offset="100%" stop-color="rgb(139,188,199)"/></linearGradient><linearGradient x1="14.4922" y1="8.1108" x2="14.5089" y2="10.5082" id="gradient8412" gradientUnits="userSpaceOnUse"><stop offset="0%" stop-color="rgb(20,30,36)"/><stop offset="100%" stop-color="rgb(139,188,199)"/></linearGradient></defs><g><path d="M2,16 C3.8128,15.6452 5.5195,14.9951 7,14 C8.1772,13.2087 9.2047,12.2074 10,11 C10.4925,12.1158 11.1795,13.1146 12,14 C13.1214,15.2102 14.4954,16.199 16,17 C16.3151,15.2461 16.3959,13.4645 16,12 C15.7977,11.2516 15.4855,10.5806 15,10 C15.3294,9.9219 15.6602,9.9312 16,10 C16.665,10.1346 17.3615,10.5232 18,11 C17.7684,9.9635 17.4287,8.9642 17,8 C16.2777,6.3756 15.3657,4.8727 14,4 C12.6038,3.1078 10.8147,2.8959 9,3 C7.5895,3.0809 6.2081,3.3359 5,4 C3.202,4.9884 1.8571,6.8195 1,9 L3,8 C2.5016,8.9425 2.1849,9.9524 2,11 C1.716,12.6089 1.7601,14.3098 2,16 Z" fill="rgb(163,138,98)" opacity="1"/><path d="M17,10 C17.6871,13.6798 14.221,17.992 9.5,18 C4.7395,18.008 1.3481,13.7442 2,10 C3.3514,2.239 15.6835,2.1999 17,10 Z" fill="rgb(177,106,78)" opacity="1"/><path d="M16,10 C16.0168,14.427 13.09,17.9993 9.5,18 C5.9044,18.0007 3,14.425 3,10 C3,5.575 5.9044,1.9993 9.5,2 C13.09,2.0007 16.0168,5.573 16,10 Z" fill="rgb(225,160,121)" opacity="1"/><path d="M12,4 C10.6256,4.5883 9.286,5.2494 8,6 C6.9614,6.6062 5.9576,7.2695 5,8 C5.1439,6.9285 5.479,5.9158 6,5 C6.5016,4.1183 7.1442,3.34 8,3 C9.2308,2.5109 10.7421,2.9128 12,4 Z" fill="rgb(177,106,78)" opacity="1"/><path d="M7,15 L12,15 C11.2802,15.6473 10.4146,16 9.5,16 C8.5854,16 7.7198,15.6473 7,15 Z" fill="rgb(177,106,78)" opacity="1"/><path d="M17,10 C15.8226,9.5937 14.8084,8.8972 14,8 C13.0081,6.8991 12.349,5.5189 12,4 C10.1922,4.3319 8.5032,5.0125 7,6 C5.4224,7.0364 4.0749,8.3936 3,10 L3,8 L1,9 C1.063,7.085 1.8008,5.3628 3,4 C4.6555,2.1186 7.0095,1.0374 9.4948,1 C12.0751,0.9612 14.52,2.021 16,4 C17.2472,5.6678 17.6755,7.8351 17,10 Z" fill="rgb(163,138,98)" opacity="1"/></g><g><path d="M7,9.2805 C7.7293,8.6609 8.593,8.3254 9.4998,8.3254 C10.4067,8.3254 11.2705,8.6608 12,9.2805 L12,11.5 C11.2636,10.9012 10.4011,10.5786 9.4998,10.5786 C8.5986,10.5787 7.7362,10.9012 7,11.5 L7,9.2805 Z" fill="rgb(139,188,199)" opacity="0.25"/><path d="M7,9.5996 C7.7293,8.9799 8.593,8.6445 9.4998,8.6444 C10.4067,8.6444 11.2705,8.9799 12,9.5996 L12,11.2203 C11.2636,10.6215 10.4011,10.2989 9.4998,10.299 C8.5986,10.299 7.7362,10.6216 7,11.2203 L7,9.5996 Z" fill="rgb(139,188,199)" opacity="0.25"/><path d="M0,10.5 C-0.0036,8.0097 2.0041,5.9973 4.5,6 C6.9895,6.0027 9,8.0109 9,10.5 C9,12.9891 6.9895,14.9973 4.5,15 C2.0041,15.0027 -0.0036,12.9903 0,10.5 Z" fill="rgb(139,188,199)" opacity="0.25"/><path d="M0.4813,10.4924 C0.4781,8.2727 2.2677,6.4789 4.4924,6.4813 C6.7113,6.4837 8.5034,8.2738 8.5034,10.4924 C8.5034,12.711 6.7113,14.501 4.4924,14.5034 C2.2677,14.5059 0.4781,12.712 0.4813,10.4924 Z" fill="rgb(139,188,199)" opacity="0.25"/><path d="M10,10.5 C9.9964,8.0097 12.0041,5.9973 14.5,6 C16.9895,6.0027 19,8.0109 19,10.5 C19,12.9891 16.9895,14.9973 14.5,15 C12.0041,15.0027 9.9964,12.9903 10,10.5 Z" fill="rgb(139,188,199)" opacity="0.25"/><path d="M10.4814,10.5025 C10.4782,8.2773 12.2723,6.479 14.5025,6.4814 C16.727,6.4838 18.5236,8.2783 18.5236,10.5025 C18.5236,12.7267 16.727,14.5211 14.5025,14.5236 C12.2723,14.526 10.4782,12.7277 10.4814,10.5025 Z" fill="rgb(139,188,199)" opacity="0.25"/></g><g><path d="M2,10.5 C1.998,9.1165 3.1134,7.9985 4.5,8 C5.883,8.0015 7,9.1172 7,10.5 C7,11.8828 5.883,12.9985 4.5,13 C3.1134,13.0015 1.998,11.8835 2,10.5 Z" fill="url(#gradient8402)" opacity="1"/><path d="M7,10.5 C6.9878,11.2019 6.7128,11.8315 6.2466,12.2898 C5.7781,12.7502 5.1481,13.0111 4.5,13 C3.6896,12.9861 2.929,12.5445 2.3551,11.8229 C2.6839,10.5159 3.4668,9.5736 4.606,9.3818 C5.5476,9.2232 6.4172,9.6397 7,10.5 Z" fill="url(#gradient8403)" opacity="1"/><path d="M16.9922,10.5014 C16.9942,9.1179 15.8788,7.9999 14.4922,8.0014 C13.1091,8.0029 11.9922,9.1186 11.9922,10.5014 C11.9922,11.8842 13.1091,12.9999 14.4922,13.0014 C15.8788,13.0029 16.9942,11.8849 16.9922,10.5014 Z" fill="url(#gradient8404)" opacity="1"/><path d="M11.9922,10.5014 C12.0044,11.2033 12.2794,11.8329 12.7456,12.2912 C13.214,12.7516 13.8441,13.0125 14.4922,13.0014 C15.3025,12.9875 16.0632,12.5458 16.637,11.8242 C16.3872,10.5727 15.6726,9.6545 14.565,9.4137 C13.5733,9.1981 12.6458,9.6143 11.9922,10.5014 Z" fill="url(#gradient8405)" opacity="1"/><path d="M7,9.9007 C7.7143,9.2837 8.5661,8.9497 9.4599,8.9433 C10.3776,8.9367 11.2555,9.2754 12,9.9007 L12,11.066 C11.2855,10.3837 10.4119,10.009 9.483,10.012 C8.5642,10.015 7.7015,10.3877 7,11.066 L7,9.9007 Z" fill="rgb(255,255,255)" opacity="1"/><path d="M1,10.5 C0.9972,8.5631 2.5588,6.9979 4.5,7 C6.4363,7.0021 8,8.5641 8,10.5 C8,12.4359 6.4363,13.9979 4.5,14 C2.5588,14.0021 0.9972,12.4369 1,10.5 Z" fill="rgb(255,255,255)" opacity="1"/><path d="M11,10.5 C10.9972,8.5631 12.5588,6.9979 14.5,7 C16.4363,7.0021 18,8.5641 18,10.5 C18,12.4359 16.4363,13.9979 14.5,14 C12.5588,14.0021 10.9972,12.4369 11,10.5 Z" fill="rgb(255,255,255)" opacity="1"/><path d="M2.1094,10.5 C2.1074,9.1771 3.1741,8.1079 4.5,8.1094 C5.8225,8.1108 6.8906,9.1777 6.8906,10.5 C6.8906,11.8223 5.8225,12.8892 4.5,12.8906 C3.1741,12.8921 2.1074,11.823 2.1094,10.5 Z" fill="url(#gradient8409)" opacity="1"/><path d="M6.8906,10.5 C6.879,11.1712 6.616,11.7732 6.1702,12.2115 C5.7222,12.6518 5.1197,12.9013 4.5,12.8906 C3.7251,12.8773 2.9977,12.455 2.449,11.765 C2.7634,10.5152 3.512,9.6141 4.6014,9.4307 C5.5018,9.2791 6.3333,9.6773 6.8906,10.5 Z" fill="url(#gradient8410)" opacity="1"/><path d="M16.8828,10.5014 C16.8847,9.1784 15.8181,8.1093 14.4922,8.1108 C13.1696,8.1122 12.1015,9.1791 12.1015,10.5014 C12.1015,11.8237 13.1696,12.8906 14.4922,12.892 C15.8181,12.8935 16.8847,11.8243 16.8828,10.5014 Z" fill="url(#gradient8411)" opacity="1"/><path d="M12.1015,10.5014 C12.1132,11.1726 12.3762,11.7746 12.822,12.2129 C13.27,12.6532 13.8725,12.9027 14.4922,12.892 C15.2671,12.8787 15.9945,12.4564 16.5432,11.7664 C16.3043,10.5696 15.6209,9.6916 14.5619,9.4613 C13.6135,9.2551 12.7266,9.6532 12.1015,10.5014 Z" fill="url(#gradient8412)" opacity="1"/></g><g><path d="M5,9 C5.5534,8.9992 6.0006,9.4454 6,10 C5.9994,10.5532 5.5531,11 5,11 C4.4469,11 4.0006,10.5532 4,10 C3.9994,9.4454 4.4466,8.9992 5,9 Z" fill="rgb(20,30,36)" opacity="0.1"/><path d="M14,9 C14.5534,8.9992 15.0006,9.4454 15,10 C14.9994,10.5532 14.5531,11 14,11 C13.4469,11 13.0006,10.5532 13,10 C12.9994,9.4454 13.4466,8.9992 14,9 Z" fill="rgb(20,30,36)" opacity="0.1"/></g></svg>